<svg xmlns="http://www.w3.org/2000/svg" width="580" height="400">
 <g>
  <title>background</title>
  <rect fill="#80aa94" id="canvas_background" height="402" width="582" y="-1" x="-1"/>
  <g display="none" overflow="visible" y="0" x="0" height="100%" width="100%" id="canvasGrid">
   <rect fill="url(#gridpattern)" stroke-width="0" y="0" x="0" height="100%" width="100%"/>
  </g>
 </g>
 <g>
  <title>Layer 1</title>
  <ellipse opacity="0.11" stroke="#46673D" ry="223.00001" rx="166" id="svg_2" cy="471.00001" cx="-30.5" fill-opacity="null" stroke-width="20" fill="none"/>
  <ellipse opacity="0.11" stroke="#46673D" ry="223.00001" rx="166" id="svg_3" cy="514.00001" cx="-69.5" fill-opacity="null" stroke-width="20" fill="none"/>
  <ellipse opacity="0.11" stroke="#46673D" ry="223.00001" rx="166" id="svg_4" cy="429.00001" cx="9.5" fill-opacity="null" stroke-width="20" fill="none"/>
  <ellipse opacity="0.11" stroke="#46673D" ry="223.00001" rx="166" id="svg_5" cy="118.00001" cx="-113.5" fill-opacity="null" stroke-width="20" fill="none"/>
  <ellipse opacity="0.11" stroke="#46673D" ry="223.00001" rx="166" id="svg_7" cy="110.00001" cx="-68.5" fill-opacity="null" stroke-width="20" fill="none"/>
  <ellipse opacity="0.11" stroke="#46673D" ry="223.00001" rx="166" id="svg_10" cy="112.00001" cx="-18.5" fill-opacity="null" stroke-width="20" fill="none"/>
  <ellipse opacity="0.11" stroke="#46673D" ry="223.00001" rx="166" id="svg_11" cy="116.00001" cx="34.5" fill-opacity="null" stroke-width="20" fill="none"/>
  <ellipse opacity="0.11" stroke="#46673D" ry="223.00001" rx="166" id="svg_12" cy="127.00001" cx="81.5" fill-opacity="null" stroke-width="20" fill="none"/>
  <ellipse opacity="0.11" stroke="#46673D" ry="223.00001" rx="352.499989" id="svg_13" cy="-131.99999" cx="432.999989" fill-opacity="null" stroke-width="20" fill="none"/>
  <ellipse opacity="0.11" stroke="#46673D" ry="223.00001" rx="352.499989" id="svg_14" cy="-89.99999" cx="432.999989" fill-opacity="null" stroke-width="20" fill="none"/>
  <ellipse opacity="0.11" stroke="#46673D" ry="223.00001" rx="352.499989" id="svg_15" cy="-44.99999" cx="431.999989" fill-opacity="null" stroke-width="20" fill="none"/>
  <ellipse opacity="0.11" stroke="#46673D" ry="223.00001" rx="352.499989" id="svg_16" cy="-1.99999" cx="431.999989" fill-opacity="null" stroke-width="20" fill="none"/>
  <ellipse opacity="0.11" stroke="#46673D" ry="223.00001" rx="352.499989" id="svg_17" cy="40.00001" cx="428.999989" fill-opacity="null" stroke-width="20" fill="none"/>
  <ellipse transform="translate(78 436)" opacity="0.11" stroke="#46673D" ry="223.00001" rx="352.499989" id="svg_18" cy="40.00001" cx="429.999989" fill-opacity="null" stroke-width="20" fill="none"/>
  <ellipse transform="translate(78 436)" opacity="0.11" stroke="#46673D" ry="223.00001" rx="352.499989" id="svg_19" cy="76.00001" cx="457.999989" fill-opacity="null" stroke-width="20" fill="none"/>
  <ellipse transform="translate(78 436)" opacity="0.11" stroke="#46673D" ry="223.00001" rx="352.499989" id="svg_20" cy="115.00001" cx="478.999989" fill-opacity="null" stroke-width="20" fill="none"/>
  <ellipse transform="translate(78 436)" opacity="0.11" stroke="#46673D" ry="223.00001" rx="352.499989" id="svg_21" cy="147.00001" cx="500.999989" fill-opacity="null" stroke-width="20" fill="none"/>
  <path opacity="0.51" id="svg_22" d="m226.30249,294.654999l0,0c0,-2.208984 1.790894,-4 4,-4l0,0c1.060913,0 2.078247,0.421387 2.828491,1.171631c0.750122,0.75 1.171509,1.767578 1.171509,2.828369l0,0c0,2.209229 -1.790894,4 -4,4l0,0c-2.209106,0 -4,-1.790771 -4,-4zm4,-4l0,8m-4,-4l8,0" fill-opacity="null" stroke-width="20" stroke="#46673D" fill="none"/>
  <path opacity="0.51" id="svg_23" d="m190.30249,332.654999l0,0c0,-2.208984 1.790894,-4 4,-4l0,0c1.060913,0 2.078247,0.421387 2.828491,1.171631c0.750122,0.75 1.171509,1.767578 1.171509,2.828369l0,0c0,2.209229 -1.790894,4 -4,4l0,0c-2.209106,0 -4,-1.790771 -4,-4zm4,-4l0,8m-4,-4l8,0" fill-opacity="null" stroke-width="20" stroke="#46673D" fill="none"/>
  <path opacity="0.51" id="svg_24" d="m6.30249,158.654999l0,0c0,-2.208984 1.790894,-4 4,-4l0,0c1.060913,0 2.078247,0.421387 2.828491,1.171631c0.750122,0.75 1.171509,1.767578 1.171509,2.828369l0,0c0,2.209229 -1.790894,4 -4,4l0,0c-2.209106,0 -4,-1.790771 -4,-4zm4,-4l0,8m-4,-4l8,0" fill-opacity="null" stroke-width="20" stroke="#46673D" fill="none"/>
  <path opacity="0.51" id="svg_25" d="m13.30249,106.654999l0,0c0,-2.208984 1.79089,-4 4,-4l0,0c1.060909,0 2.078251,0.421387 2.828489,1.171631c0.75012,0.75 1.171511,1.767578 1.171511,2.828369l0,0c0,2.209229 -1.79089,4 -4,4l0,0c-2.20911,0 -4,-1.790771 -4,-4zm4,-4l0,8m-4,-4l8,0" fill-opacity="null" stroke-width="20" stroke="#46673D" fill="none"/>
  <path opacity="0.51" id="svg_26" d="m5.30249,60.654999l0,0c0,-2.208992 1.79089,-4 4,-4l0,0c1.060909,0 2.078249,0.421394 2.828489,1.171631c0.75012,0.75 1.171511,1.767578 1.171511,2.828369l0,0c0,2.209229 -1.79089,4 -4,4l0,0c-2.20911,0 -4,-1.790771 -4,-4zm4,-4l0,8m-4,-4l8,0" fill-opacity="null" stroke-width="20" stroke="#46673D" fill="none"/>
  <path opacity="0.51" id="svg_27" d="m265.30249,270.654999l0,0c0,-2.208984 1.790894,-4 4,-4l0,0c1.060913,0 2.078247,0.421387 2.828491,1.171631c0.750122,0.75 1.171509,1.767578 1.171509,2.828369l0,0c0,2.209229 -1.790894,4 -4,4l0,0c-2.209106,0 -4,-1.790771 -4,-4zm4,-4l0,8m-4,-4l8,0" fill-opacity="null" stroke-width="20" stroke="#46673D" fill="none"/>
  <path opacity="0.51" id="svg_28" d="m398.30249,56.654999l0,0c0,-2.208984 1.790894,-4 4,-4l0,0c1.060913,0 2.078247,0.421387 2.828491,1.171631c0.750122,0.75 1.171509,1.767578 1.171509,2.828369l0,0c0,2.209229 -1.790894,4 -4,4l0,0c-2.209106,0 -4,-1.790771 -4,-4zm4,-4l0,8m-4,-4l8,0" fill-opacity="null" stroke-width="20" stroke="#46673D" fill="none"/>
  <path opacity="0.51" id="svg_29" d="m286.30249,27.654999l0,0c0,-2.208984 1.790894,-4 4,-4l0,0c1.060913,0 2.078247,0.421387 2.828491,1.171631c0.750122,0.75 1.171509,1.767578 1.171509,2.828369l0,0c0,2.209229 -1.790894,4 -4,4l0,0c-2.209106,0 -4,-1.790771 -4,-4zm4,-4l0,8m-4,-4l8,0" fill-opacity="null" stroke-width="20" stroke="#46673D" fill="none"/>
  <path opacity="0.51" id="svg_30" d="m341.30249,47.654999l0,0c0,-2.208984 1.790894,-4 4,-4l0,0c1.060913,0 2.078247,0.421387 2.828491,1.171631c0.750122,0.75 1.171509,1.767578 1.171509,2.828369l0,0c0,2.209229 -1.790894,4 -4,4l0,0c-2.209106,0 -4,-1.790771 -4,-4zm4,-4l0,8m-4,-4l8,0" fill-opacity="null" stroke-width="20" stroke="#46673D" fill="none"/>
  <path opacity="0.51" id="svg_31" d="m459.30249,56.654999l0,0c0,-2.208988 1.790894,-4 4,-4l0,0c1.060913,0 2.078247,0.421391 2.828491,1.171631c0.750122,0.75 1.171509,1.767582 1.171509,2.828369l0,0c0,2.209232 -1.790894,4 -4,4l0,0c-2.209106,0 -4,-1.790768 -4,-4zm4,-4l0,8m-4,-4l8,0" fill-opacity="null" stroke-width="20" stroke="#46673D" fill="none"/>
  <path opacity="0.51" id="svg_32" d="m521.30249,45.654999l0,0c0,-2.208988 1.790894,-4 4,-4l0,0c1.060913,0 2.078247,0.421391 2.828491,1.171631c0.750122,0.75 1.171509,1.767582 1.171509,2.828369l0,0c0,2.209232 -1.790894,4 -4,4l0,0c-2.209106,0 -4,-1.790768 -4,-4zm4,-4l0,8m-4,-4l8,0" fill-opacity="null" stroke-width="20" stroke="#46673D" fill="none"/>
  <ellipse opacity="0.11" stroke="#46673D" ry="223.00001" rx="352.499989" id="svg_33" cy="-199.99999" cx="454.999989" fill-opacity="null" stroke-width="20" fill="none"/>
 </g>
</svg>
