<svg width="100" height="100" viewBox="0 0 100 100" fill="none" xmlns="http://www.w3.org/2000/svg">
<rect width="100" height="100" fill="#0E160C"/>
<path d="M18.1348 39.1973C18.1348 38.2949 17.8125 37.5918 17.168 37.0879C16.5352 36.584 15.416 36.0625 13.8105 35.5234C12.2051 34.9844 10.8926 34.4629 9.87305 33.959C6.55664 32.3301 4.89844 30.0918 4.89844 27.2441C4.89844 25.8262 5.30859 24.5781 6.12891 23.5C6.96094 22.4102 8.13281 21.5664 9.64453 20.9688C11.1562 20.3594 12.8555 20.0547 14.7422 20.0547C16.582 20.0547 18.2285 20.3828 19.6816 21.0391C21.1465 21.6953 22.2832 22.6328 23.0918 23.8516C23.9004 25.0586 24.3047 26.4414 24.3047 28H18.1523C18.1523 26.957 17.8301 26.1484 17.1855 25.5742C16.5527 25 15.6914 24.7129 14.6016 24.7129C13.5 24.7129 12.627 24.959 11.9824 25.4512C11.3496 25.9316 11.0332 26.5469 11.0332 27.2969C11.0332 27.9531 11.3848 28.5508 12.0879 29.0898C12.791 29.6172 14.0273 30.168 15.7969 30.7422C17.5664 31.3047 19.0195 31.9141 20.1562 32.5703C22.9219 34.1641 24.3047 36.3613 24.3047 39.1621C24.3047 41.4004 23.4609 43.1582 21.7734 44.4355C20.0859 45.7129 17.7715 46.3516 14.8301 46.3516C12.7559 46.3516 10.875 45.9824 9.1875 45.2441C7.51172 44.4941 6.24609 43.4746 5.39062 42.1855C4.54688 40.8848 4.125 39.3906 4.125 37.7031H10.3125C10.3125 39.0742 10.6641 40.0879 11.3672 40.7441C12.082 41.3887 13.2363 41.7109 14.8301 41.7109C15.8496 41.7109 16.6523 41.4941 17.2383 41.0605C17.8359 40.6152 18.1348 39.9941 18.1348 39.1973Z" fill="white" fill-opacity="0.49"/>
<path d="M17.168 37.0879L17.0434 37.2444L17.0448 37.2455L17.168 37.0879ZM9.87305 33.959L9.96166 33.7797L9.96122 33.7795L9.87305 33.959ZM6.12891 23.5L5.96994 23.3786L5.96974 23.3789L6.12891 23.5ZM9.64453 20.9688L9.71806 21.1547L9.7193 21.1542L9.64453 20.9688ZM19.6816 21.0391L19.5993 21.2213L19.5999 21.2216L19.6816 21.0391ZM23.0918 23.8516L22.9251 23.9621L22.9256 23.9629L23.0918 23.8516ZM24.3047 28V28.2H24.5047V28H24.3047ZM18.1523 28H17.9523V28.2H18.1523V28ZM17.1855 25.5742L17.0511 25.7223L17.0525 25.7236L17.1855 25.5742ZM11.9824 25.4512L12.1034 25.6105L12.1038 25.6101L11.9824 25.4512ZM12.0879 29.0898L11.9662 29.2486L11.9679 29.2498L12.0879 29.0898ZM15.7969 30.7422L15.7351 30.9324L15.7363 30.9328L15.7969 30.7422ZM20.1562 32.5703L20.0563 32.7435L20.0564 32.7436L20.1562 32.5703ZM9.1875 45.2441L9.1058 45.4267L9.10734 45.4274L9.1875 45.2441ZM5.39062 42.1855L5.22282 42.2944L5.22398 42.2961L5.39062 42.1855ZM4.125 37.7031V37.5031H3.925V37.7031H4.125ZM10.3125 37.7031H10.5125V37.5031H10.3125V37.7031ZM11.3672 40.7441L11.2307 40.8904L11.2333 40.8927L11.3672 40.7441ZM17.2383 41.0605L17.3573 41.2213L17.3578 41.2209L17.2383 41.0605ZM18.3348 39.1973C18.3348 38.2406 17.9896 37.4764 17.2912 36.9303L17.0448 37.2455C17.6354 37.7072 17.9348 38.3492 17.9348 39.1973H18.3348ZM17.2926 36.9314C16.6307 36.4044 15.483 35.874 13.8742 35.3338L13.7469 35.713C15.349 36.251 16.4396 36.7636 17.0434 37.2443L17.2926 36.9314ZM13.8742 35.3338C12.2736 34.7964 10.9702 34.2782 9.96166 33.7797L9.78443 34.1383C10.8149 34.6476 12.1366 35.1723 13.7469 35.713L13.8742 35.3338ZM9.96122 33.7795C6.68913 32.1723 5.09844 29.9919 5.09844 27.2441H4.69844C4.69844 30.1917 6.42415 32.4878 9.78488 34.1385L9.96122 33.7795ZM5.09844 27.2441C5.09844 25.8677 5.49555 24.6627 6.28807 23.6211L5.96974 23.3789C5.12164 24.4935 4.69844 25.7846 4.69844 27.2441H5.09844ZM6.28787 23.6214C7.09404 22.5654 8.23384 21.7415 9.71806 21.1547L9.571 20.7828C8.03179 21.3913 6.82784 22.2549 5.96994 23.3786L6.28787 23.6214ZM9.7193 21.1542C11.2038 20.5558 12.8771 20.2547 14.7422 20.2547V19.8547C12.8338 19.8547 11.1087 20.1629 9.56976 20.7833L9.7193 21.1542ZM14.7422 20.2547C16.558 20.2547 18.1758 20.5784 19.5993 21.2213L19.764 20.8568C18.2813 20.1872 16.6061 19.8547 14.7422 19.8547V20.2547ZM19.5999 21.2216C21.0337 21.8639 22.1395 22.778 22.9251 23.9621L23.2585 23.741C22.4269 22.4877 21.2593 21.5267 19.7634 20.8565L19.5999 21.2216ZM22.9256 23.9629C23.7105 25.1345 24.1047 26.478 24.1047 28H24.5047C24.5047 26.4048 24.0902 24.9826 23.258 23.7403L22.9256 23.9629ZM24.3047 27.8H18.1523V28.2H24.3047V27.8ZM18.3523 28C18.3523 26.9129 18.0145 26.0449 17.3186 25.4249L17.0525 25.7236C17.6457 26.252 17.9523 27.0012 17.9523 28H18.3523ZM17.3199 25.4261C16.6411 24.8101 15.7269 24.5129 14.6016 24.5129V24.9129C15.6559 24.9129 16.4644 25.1899 17.0511 25.7223L17.3199 25.4261ZM14.6016 24.5129C13.4717 24.5129 12.551 24.7653 11.861 25.2922L12.1038 25.6101C12.7029 25.1527 13.5283 24.9129 14.6016 24.9129V24.5129ZM11.8615 25.2919C11.1823 25.8076 10.8332 26.4801 10.8332 27.2969H11.2332C11.2332 26.6136 11.5169 26.0557 12.1034 25.6105L11.8615 25.2919ZM10.8332 27.2969C10.8332 28.0355 11.2323 28.6859 11.9662 29.2486L12.2096 28.9311C11.5372 28.4157 11.2332 27.8707 11.2332 27.2969H10.8332ZM11.9679 29.2498C12.6992 29.7983 13.9627 30.3573 15.7351 30.9324L15.8586 30.552C14.092 29.9787 12.8828 29.436 12.2079 28.9298L11.9679 29.2498ZM15.7363 30.9328C17.4973 31.4926 18.936 32.0967 20.0563 32.7435L20.2562 32.3971C19.1031 31.7314 17.6356 31.1168 15.8575 30.5516L15.7363 30.9328ZM20.0564 32.7436C22.7704 34.3076 24.1047 36.4441 24.1047 39.1621H24.5047C24.5047 36.2786 23.0733 34.0205 20.2561 32.397L20.0564 32.7436ZM24.1047 39.1621C24.1047 41.342 23.287 43.039 21.6527 44.2761L21.8941 44.595C23.6348 43.2774 24.5047 41.4588 24.5047 39.1621H24.1047ZM21.6527 44.2761C20.0112 45.5186 17.7445 46.1516 14.8301 46.1516V46.5516C17.7984 46.5516 20.1606 45.9072 21.8941 44.595L21.6527 44.2761ZM14.8301 46.1516C12.78 46.1516 10.9269 45.7868 9.26766 45.0609L9.10734 45.4274C10.8231 46.178 12.7317 46.5516 14.8301 46.5516V46.1516ZM9.2692 45.0616C7.62144 44.3241 6.38817 43.327 5.55727 42.075L5.22398 42.2961C6.10402 43.6222 7.402 44.6642 9.1058 45.4267L9.2692 45.0616ZM5.55842 42.0767C4.73754 40.8112 4.325 39.3556 4.325 37.7031H3.925C3.925 39.4257 4.35621 40.9583 5.22283 42.2944L5.55842 42.0767ZM4.125 37.9031H10.3125V37.5031H4.125V37.9031ZM10.1125 37.7031C10.1125 39.1056 10.4723 40.1825 11.2307 40.8904L11.5037 40.5979C10.8558 39.9933 10.5125 39.0428 10.5125 37.7031H10.1125ZM11.2333 40.8927C12.0024 41.5862 13.2172 41.9109 14.8301 41.9109V41.5109C13.2555 41.5109 12.1616 41.1912 11.5011 40.5956L11.2333 40.8927ZM14.8301 41.9109C15.8758 41.9109 16.7256 41.6888 17.3572 41.2213L17.1193 40.8998C16.5791 41.2995 15.8234 41.5109 14.8301 41.5109V41.9109ZM17.3578 41.2209C18.01 40.7349 18.3348 40.0522 18.3348 39.1973H17.9348C17.9348 39.9361 17.6618 40.4955 17.1188 40.9002L17.3578 41.2209Z" fill="#A3A8A2"/>
<path d="M47.0078 20.4062V37.1582C47.0078 39.0566 46.6035 40.7031 45.7949 42.0977C44.9863 43.4805 43.8262 44.5352 42.3145 45.2617C40.8027 45.9883 39.0156 46.3516 36.9531 46.3516C33.8359 46.3516 31.3809 45.543 29.5879 43.9258C27.7949 42.3086 26.8809 40.0938 26.8457 37.2812V20.4062H33.0508V37.4043C33.1211 40.2051 34.4219 41.6055 36.9531 41.6055C38.2305 41.6055 39.1973 41.2539 39.8535 40.5508C40.5098 39.8477 40.8379 38.7051 40.8379 37.123V20.4062H47.0078Z" fill="white" fill-opacity="0.49"/>
<path d="M47.0078 20.4062H47.2078V20.2062H47.0078V20.4062ZM45.7949 42.0977L45.9676 42.1986L45.9679 42.198L45.7949 42.0977ZM26.8457 37.2812H26.6457L26.6457 37.2837L26.8457 37.2812ZM26.8457 20.4062V20.2062H26.6457V20.4062H26.8457ZM33.0508 20.4062H33.2508V20.2062H33.0508V20.4062ZM33.0508 37.4043H32.8507L32.8508 37.4093L33.0508 37.4043ZM40.8379 20.4062V20.2062H40.6379V20.4062H40.8379ZM46.8078 20.4062V37.1582H47.2078V20.4062H46.8078ZM46.8078 37.1582C46.8078 39.0277 46.4099 40.6383 45.6219 41.9973L45.9679 42.198C46.7971 40.7679 47.2078 39.0856 47.2078 37.1582H46.8078ZM45.6223 41.9967C44.8348 43.3434 43.7054 44.3713 42.2278 45.0815L42.4011 45.442C43.947 44.699 45.1379 43.6175 45.9676 42.1986L45.6223 41.9967ZM42.2278 45.0815C40.7486 45.7924 38.9924 46.1516 36.9531 46.1516V46.5516C39.0389 46.5516 40.8569 46.1842 42.4011 45.442L42.2278 45.0815ZM36.9531 46.1516C33.8706 46.1516 31.4684 45.3526 29.7218 43.7773L29.4539 44.0743C31.2933 45.7334 33.8013 46.5516 36.9531 46.5516V46.1516ZM29.7218 43.7773C27.9772 42.2037 27.0803 40.0456 27.0457 37.2788L26.6457 37.2837C26.6814 40.1419 27.6126 42.4135 29.4539 44.0743L29.7218 43.7773ZM27.0457 37.2812V20.4062H26.6457V37.2812H27.0457ZM26.8457 20.6063H33.0508V20.2062H26.8457V20.6063ZM32.8508 20.4062V37.4043H33.2508V20.4062H32.8508ZM32.8508 37.4093C32.8867 38.8362 33.2365 39.9419 33.9326 40.6913C34.632 41.4443 35.6508 41.8055 36.9531 41.8055V41.4055C35.7242 41.4055 34.827 41.0665 34.2256 40.4191C33.621 39.7681 33.2852 38.7732 33.2507 37.3993L32.8508 37.4093ZM36.9531 41.8055C38.2669 41.8055 39.2944 41.443 39.9997 40.6872L39.7073 40.4143C39.1002 41.0648 38.1941 41.4055 36.9531 41.4055V41.8055ZM39.9997 40.6872C40.707 39.9295 41.0379 38.725 41.0379 37.123H40.6379C40.6379 38.6852 40.3126 39.7658 39.7073 40.4143L39.9997 40.6872ZM41.0379 37.123V20.4062H40.6379V37.123H41.0379ZM40.8379 20.6063H47.0078V20.2062H40.8379V20.6063Z" fill="#A3A8A2"/>
<path d="M61.4434 36.9648H58.1035V46H51.9336V20.4062H62.0059C65.041 20.4062 67.4141 21.0801 69.125 22.4277C70.8359 23.7754 71.6914 25.6797 71.6914 28.1406C71.6914 29.9219 71.3281 31.3984 70.6016 32.5703C69.8867 33.7422 68.7617 34.6914 67.2266 35.418L72.5703 45.7363V46H65.9609L61.4434 36.9648ZM58.1035 32.2012H62.0059C63.1777 32.2012 64.0566 31.8965 64.6426 31.2871C65.2402 30.666 65.5391 29.8047 65.5391 28.7031C65.5391 27.6016 65.2402 26.7402 64.6426 26.1191C64.0449 25.4863 63.166 25.1699 62.0059 25.1699H58.1035V32.2012Z" fill="white" fill-opacity="0.49"/>
<path d="M61.4434 36.9648L61.6222 36.8754L61.567 36.7648H61.4434V36.9648ZM58.1035 36.9648V36.7648H57.9035V36.9648H58.1035ZM58.1035 46V46.2H58.3035V46H58.1035ZM51.9336 46H51.7336V46.2H51.9336V46ZM51.9336 20.4062V20.2062H51.7336V20.4062H51.9336ZM70.6016 32.5703L70.4316 32.4649L70.4308 32.4662L70.6016 32.5703ZM67.2266 35.418L67.141 35.2372L66.9536 35.3259L67.049 35.5099L67.2266 35.418ZM72.5703 45.7363H72.7703V45.6876L72.7479 45.6444L72.5703 45.7363ZM72.5703 46V46.2H72.7703V46H72.5703ZM65.9609 46L65.7821 46.0894L65.8373 46.2H65.9609V46ZM58.1035 32.2012H57.9035V32.4012H58.1035V32.2012ZM64.6426 31.2871L64.4985 31.1484L64.4984 31.1485L64.6426 31.2871ZM64.6426 26.1191L64.4972 26.2565L64.4985 26.2578L64.6426 26.1191ZM58.1035 25.1699V24.9699H57.9035V25.1699H58.1035ZM61.4434 36.7648H58.1035V37.1648H61.4434V36.7648ZM57.9035 36.9648V46H58.3035V36.9648H57.9035ZM58.1035 45.8H51.9336V46.2H58.1035V45.8ZM52.1336 46V20.4062H51.7336V46H52.1336ZM51.9336 20.6063H62.0059V20.2062H51.9336V20.6063ZM62.0059 20.6063C65.0135 20.6063 67.3372 21.2741 69.0012 22.5848L69.2488 22.2706C67.491 20.8861 65.0685 20.2062 62.0059 20.2062V20.6063ZM69.0012 22.5848C70.6574 23.8893 71.4914 25.7319 71.4914 28.1406H71.8914C71.8914 25.6274 71.0145 23.6615 69.2488 22.2706L69.0012 22.5848ZM71.4914 28.1406C71.4914 29.8953 71.1336 31.3327 70.4316 32.4649L70.7715 32.6757C71.5227 31.4642 71.8914 29.9484 71.8914 28.1406H71.4914ZM70.4308 32.4662C69.7406 33.5976 68.6493 34.5233 67.141 35.2372L67.3121 35.5987C68.8741 34.8595 70.0328 33.8868 70.7723 32.6745L70.4308 32.4662ZM67.049 35.5099L72.3927 45.8283L72.7479 45.6444L67.4042 35.326L67.049 35.5099ZM72.3703 45.7363V46H72.7703V45.7363H72.3703ZM72.5703 45.8H65.9609V46.2H72.5703V45.8ZM66.1398 45.9106L61.6222 36.8754L61.2645 37.0543L65.7821 46.0894L66.1398 45.9106ZM58.1035 32.4012H62.0059V32.0012H58.1035V32.4012ZM62.0059 32.4012C63.2106 32.4012 64.1504 32.0875 64.7867 31.4257L64.4984 31.1485C63.9629 31.7054 63.1449 32.0012 62.0059 32.0012V32.4012ZM64.7867 31.4258C65.4294 30.7579 65.7391 29.8414 65.7391 28.7031H65.3391C65.3391 29.768 65.0511 30.5742 64.4985 31.1484L64.7867 31.4258ZM65.7391 28.7031C65.7391 27.5648 65.4294 26.6484 64.7867 25.9805L64.4985 26.2578C65.0511 26.8321 65.3391 27.6383 65.3391 28.7031H65.7391ZM64.788 25.9818C64.1412 25.297 63.2019 24.9699 62.0059 24.9699V25.3699C63.1301 25.3699 63.9487 25.6757 64.4972 26.2565L64.788 25.9818ZM62.0059 24.9699H58.1035V25.3699H62.0059V24.9699ZM57.9035 25.1699V32.2012H58.3035V25.1699H57.9035Z" fill="#A3A8A2"/>
<path d="M96.0078 20.4062V37.1582C96.0078 39.0566 95.6035 40.7031 94.7949 42.0977C93.9863 43.4805 92.8262 44.5352 91.3145 45.2617C89.8027 45.9883 88.0156 46.3516 85.9531 46.3516C82.8359 46.3516 80.3809 45.543 78.5879 43.9258C76.7949 42.3086 75.8809 40.0938 75.8457 37.2812V20.4062H82.0508V37.4043C82.1211 40.2051 83.4219 41.6055 85.9531 41.6055C87.2305 41.6055 88.1973 41.2539 88.8535 40.5508C89.5098 39.8477 89.8379 38.7051 89.8379 37.123V20.4062H96.0078Z" fill="white" fill-opacity="0.49"/>
<path d="M96.0078 20.4062H96.2078V20.2062H96.0078V20.4062ZM94.7949 42.0977L94.9676 42.1986L94.9679 42.198L94.7949 42.0977ZM75.8457 37.2812H75.6457L75.6457 37.2837L75.8457 37.2812ZM75.8457 20.4062V20.2062H75.6457V20.4062H75.8457ZM82.0508 20.4062H82.2508V20.2062H82.0508V20.4062ZM82.0508 37.4043H81.8507L81.8508 37.4093L82.0508 37.4043ZM89.8379 20.4062V20.2062H89.6379V20.4062H89.8379ZM95.8078 20.4062V37.1582H96.2078V20.4062H95.8078ZM95.8078 37.1582C95.8078 39.0277 95.4099 40.6383 94.6219 41.9973L94.9679 42.198C95.7971 40.7679 96.2078 39.0856 96.2078 37.1582H95.8078ZM94.6223 41.9967C93.8348 43.3434 92.7054 44.3713 91.2278 45.0815L91.4011 45.442C92.947 44.699 94.1379 43.6175 94.9676 42.1986L94.6223 41.9967ZM91.2278 45.0815C89.7486 45.7924 87.9924 46.1516 85.9531 46.1516V46.5516C88.0389 46.5516 89.8569 46.1842 91.4011 45.442L91.2278 45.0815ZM85.9531 46.1516C82.8706 46.1516 80.4684 45.3526 78.7218 43.7773L78.4539 44.0743C80.2933 45.7334 82.8013 46.5516 85.9531 46.5516V46.1516ZM78.7218 43.7773C76.9772 42.2037 76.0803 40.0456 76.0457 37.2788L75.6457 37.2837C75.6814 40.1419 76.6126 42.4135 78.4539 44.0743L78.7218 43.7773ZM76.0457 37.2812V20.4062H75.6457V37.2812H76.0457ZM75.8457 20.6063H82.0508V20.2062H75.8457V20.6063ZM81.8508 20.4062V37.4043H82.2508V20.4062H81.8508ZM81.8508 37.4093C81.8867 38.8362 82.2365 39.9419 82.9326 40.6913C83.632 41.4443 84.6508 41.8055 85.9531 41.8055V41.4055C84.7242 41.4055 83.827 41.0665 83.2256 40.4191C82.621 39.7681 82.2852 38.7732 82.2507 37.3993L81.8508 37.4093ZM85.9531 41.8055C87.2669 41.8055 88.2944 41.443 88.9997 40.6872L88.7073 40.4143C88.1002 41.0648 87.1941 41.4055 85.9531 41.4055V41.8055ZM88.9997 40.6872C89.707 39.9295 90.0379 38.725 90.0379 37.123H89.6379C89.6379 38.6852 89.3126 39.7658 88.7073 40.4143L88.9997 40.6872ZM90.0379 37.123V20.4062H89.6379V37.123H90.0379ZM89.8379 20.6063H96.0078V20.2062H89.8379V20.6063Z" fill="#A3A8A2"/>
<path d="M13.1035 76.2539H23.8438V81H6.93359V55.4062H13.1035V76.2539Z" fill="white" fill-opacity="0.49"/>
<path d="M13.1035 76.2539H12.9035V76.4539H13.1035V76.2539ZM23.8438 76.2539H24.0438V76.0539H23.8438V76.2539ZM23.8438 81V81.2H24.0438V81H23.8438ZM6.93359 81H6.73359V81.2H6.93359V81ZM6.93359 55.4062V55.2062H6.73359V55.4062H6.93359ZM13.1035 55.4062H13.3035V55.2062H13.1035V55.4062ZM13.1035 76.4539H23.8438V76.0539H13.1035V76.4539ZM23.6437 76.2539V81H24.0438V76.2539H23.6437ZM23.8438 80.8H6.93359V81.2H23.8438V80.8ZM7.13359 81V55.4062H6.73359V81H7.13359ZM6.93359 55.6063H13.1035V55.2062H6.93359V55.6063ZM12.9035 55.4062V76.2539H13.3035V55.4062H12.9035Z" fill="#A3A8A2"/>
<path d="M44.8066 70.1543H35.1035V76.2539H46.5645V81H28.9336V55.4062H46.5996V60.1699H35.1035V65.5664H44.8066V70.1543Z" fill="white" fill-opacity="0.49"/>
<path d="M44.8066 70.1543V70.3543H45.0066V70.1543H44.8066ZM35.1035 70.1543V69.9543H34.9035V70.1543H35.1035ZM35.1035 76.2539H34.9035V76.4539H35.1035V76.2539ZM46.5645 76.2539H46.7645V76.0539H46.5645V76.2539ZM46.5645 81V81.2H46.7645V81H46.5645ZM28.9336 81H28.7336V81.2H28.9336V81ZM28.9336 55.4062V55.2062H28.7336V55.4062H28.9336ZM46.5996 55.4062H46.7996V55.2062H46.5996V55.4062ZM46.5996 60.1699V60.3699H46.7996V60.1699H46.5996ZM35.1035 60.1699V59.9699H34.9035V60.1699H35.1035ZM35.1035 65.5664H34.9035V65.7664H35.1035V65.5664ZM44.8066 65.5664H45.0066V65.3664H44.8066V65.5664ZM44.8066 69.9543H35.1035V70.3543H44.8066V69.9543ZM34.9035 70.1543V76.2539H35.3035V70.1543H34.9035ZM35.1035 76.4539H46.5645V76.0539H35.1035V76.4539ZM46.3645 76.2539V81H46.7645V76.2539H46.3645ZM46.5645 80.8H28.9336V81.2H46.5645V80.8ZM29.1336 81V55.4062H28.7336V81H29.1336ZM28.9336 55.6063H46.5996V55.2062H28.9336V55.6063ZM46.3996 55.4062V60.1699H46.7996V55.4062H46.3996ZM46.5996 59.9699H35.1035V60.3699H46.5996V59.9699ZM34.9035 60.1699V65.5664H35.3035V60.1699H34.9035ZM35.1035 65.7664H44.8066V65.3664H35.1035V65.7664ZM44.6066 65.5664V70.1543H45.0066V65.5664H44.6066Z" fill="#A3A8A2"/>
<path d="M62.4434 71.9648H59.1035V81H52.9336V55.4062H63.0059C66.041 55.4062 68.4141 56.0801 70.125 57.4277C71.8359 58.7754 72.6914 60.6797 72.6914 63.1406C72.6914 64.9219 72.3281 66.3984 71.6016 67.5703C70.8867 68.7422 69.7617 69.6914 68.2266 70.418L73.5703 80.7363V81H66.9609L62.4434 71.9648ZM59.1035 67.2012H63.0059C64.1777 67.2012 65.0566 66.8965 65.6426 66.2871C66.2402 65.666 66.5391 64.8047 66.5391 63.7031C66.5391 62.6016 66.2402 61.7402 65.6426 61.1191C65.0449 60.4863 64.166 60.1699 63.0059 60.1699H59.1035V67.2012Z" fill="white" fill-opacity="0.49"/>
<path d="M62.4434 71.9648L62.6222 71.8754L62.567 71.7648H62.4434V71.9648ZM59.1035 71.9648V71.7648H58.9035V71.9648H59.1035ZM59.1035 81V81.2H59.3035V81H59.1035ZM52.9336 81H52.7336V81.2H52.9336V81ZM52.9336 55.4062V55.2062H52.7336V55.4062H52.9336ZM71.6016 67.5703L71.4316 67.4649L71.4308 67.4662L71.6016 67.5703ZM68.2266 70.418L68.141 70.2372L67.9536 70.3259L68.049 70.5099L68.2266 70.418ZM73.5703 80.7363H73.7703V80.6876L73.7479 80.6444L73.5703 80.7363ZM73.5703 81V81.2H73.7703V81H73.5703ZM66.9609 81L66.7821 81.0894L66.8373 81.2H66.9609V81ZM59.1035 67.2012H58.9035V67.4012H59.1035V67.2012ZM65.6426 66.2871L65.4985 66.1484L65.4984 66.1485L65.6426 66.2871ZM65.6426 61.1191L65.4972 61.2565L65.4985 61.2578L65.6426 61.1191ZM59.1035 60.1699V59.9699H58.9035V60.1699H59.1035ZM62.4434 71.7648H59.1035V72.1648H62.4434V71.7648ZM58.9035 71.9648V81H59.3035V71.9648H58.9035ZM59.1035 80.8H52.9336V81.2H59.1035V80.8ZM53.1336 81V55.4062H52.7336V81H53.1336ZM52.9336 55.6063H63.0059V55.2062H52.9336V55.6063ZM63.0059 55.6063C66.0135 55.6063 68.3372 56.2741 70.0012 57.5848L70.2488 57.2706C68.491 55.8861 66.0685 55.2062 63.0059 55.2062V55.6063ZM70.0012 57.5848C71.6574 58.8893 72.4914 60.7319 72.4914 63.1406H72.8914C72.8914 60.6274 72.0145 58.6615 70.2488 57.2706L70.0012 57.5848ZM72.4914 63.1406C72.4914 64.8953 72.1336 66.3327 71.4316 67.4649L71.7715 67.6757C72.5227 66.4642 72.8914 64.9484 72.8914 63.1406H72.4914ZM71.4308 67.4662C70.7406 68.5976 69.6493 69.5233 68.141 70.2372L68.3121 70.5987C69.8741 69.8595 71.0328 68.8868 71.7723 67.6745L71.4308 67.4662ZM68.049 70.5099L73.3927 80.8283L73.7479 80.6444L68.4042 70.326L68.049 70.5099ZM73.3703 80.7363V81H73.7703V80.7363H73.3703ZM73.5703 80.8H66.9609V81.2H73.5703V80.8ZM67.1398 80.9106L62.6222 71.8754L62.2645 72.0543L66.7821 81.0894L67.1398 80.9106ZM59.1035 67.4012H63.0059V67.0012H59.1035V67.4012ZM63.0059 67.4012C64.2106 67.4012 65.1504 67.0875 65.7867 66.4257L65.4984 66.1485C64.9629 66.7054 64.1449 67.0012 63.0059 67.0012V67.4012ZM65.7867 66.4258C66.4294 65.7579 66.7391 64.8414 66.7391 63.7031H66.3391C66.3391 64.768 66.0511 65.5742 65.4985 66.1484L65.7867 66.4258ZM66.7391 63.7031C66.7391 62.5648 66.4294 61.6484 65.7867 60.9805L65.4985 61.2578C66.0511 61.8321 66.3391 62.6383 66.3391 63.7031H66.7391ZM65.788 60.9818C65.1412 60.297 64.2019 59.9699 63.0059 59.9699V60.3699C64.1301 60.3699 64.9487 60.6757 65.4972 61.2565L65.788 60.9818ZM63.0059 59.9699H59.1035V60.3699H63.0059V59.9699ZM58.9035 60.1699V67.2012H59.3035V60.1699H58.9035Z" fill="#A3A8A2"/>
<path d="M93.8066 70.1543H84.1035V76.2539H95.5645V81H77.9336V55.4062H95.5996V60.1699H84.1035V65.5664H93.8066V70.1543Z" fill="white" fill-opacity="0.49"/>
<path d="M93.8066 70.1543V70.3543H94.0066V70.1543H93.8066ZM84.1035 70.1543V69.9543H83.9035V70.1543H84.1035ZM84.1035 76.2539H83.9035V76.4539H84.1035V76.2539ZM95.5645 76.2539H95.7645V76.0539H95.5645V76.2539ZM95.5645 81V81.2H95.7645V81H95.5645ZM77.9336 81H77.7336V81.2H77.9336V81ZM77.9336 55.4062V55.2062H77.7336V55.4062H77.9336ZM95.5996 55.4062H95.7996V55.2062H95.5996V55.4062ZM95.5996 60.1699V60.3699H95.7996V60.1699H95.5996ZM84.1035 60.1699V59.9699H83.9035V60.1699H84.1035ZM84.1035 65.5664H83.9035V65.7664H84.1035V65.5664ZM93.8066 65.5664H94.0066V65.3664H93.8066V65.5664ZM93.8066 69.9543H84.1035V70.3543H93.8066V69.9543ZM83.9035 70.1543V76.2539H84.3035V70.1543H83.9035ZM84.1035 76.4539H95.5645V76.0539H84.1035V76.4539ZM95.3645 76.2539V81H95.7645V76.2539H95.3645ZM95.5645 80.8H77.9336V81.2H95.5645V80.8ZM78.1336 81V55.4062H77.7336V81H78.1336ZM77.9336 55.6063H95.5996V55.2062H77.9336V55.6063ZM95.3996 55.4062V60.1699H95.7996V55.4062H95.3996ZM95.5996 59.9699H84.1035V60.3699H95.5996V59.9699ZM83.9035 60.1699V65.5664H84.3035V60.1699H83.9035ZM84.1035 65.7664H93.8066V65.3664H84.1035V65.7664ZM93.6066 65.5664V70.1543H94.0066V65.5664H93.6066Z" fill="#A3A8A2"/>
<rect x="33" y="16.1213" width="3" height="5" transform="rotate(-45 33 16.1213)" fill="white" fill-opacity="0.49"/>
<rect x="37.5355" y="49" width="3" height="5" transform="rotate(45 37.5355 49)" fill="white" fill-opacity="0.49"/>
<rect x="85" y="51.1213" width="3" height="5" transform="rotate(-45 85 51.1213)" fill="white" fill-opacity="0.49"/>
<rect x="82" y="16.1213" width="3" height="5" transform="rotate(-45 82 16.1213)" fill="white" fill-opacity="0.49"/>
</svg>
