<svg width="100" height="100" viewBox="0 0 100 100" fill="none" xmlns="http://www.w3.org/2000/svg">
<rect width="100" height="100" fill="#052001"/>
<path d="M18.1348 38.1973C18.1348 37.2949 17.8125 36.5918 17.168 36.0879C16.5352 35.584 15.416 35.0625 13.8105 34.5234C12.2051 33.9844 10.8926 33.4629 9.87305 32.959C6.55664 31.3301 4.89844 29.0918 4.89844 26.2441C4.89844 24.8262 5.30859 23.5781 6.12891 22.5C6.96094 21.4102 8.13281 20.5664 9.64453 19.9688C11.1562 19.3594 12.8555 19.0547 14.7422 19.0547C16.582 19.0547 18.2285 19.3828 19.6816 20.0391C21.1465 20.6953 22.2832 21.6328 23.0918 22.8516C23.9004 24.0586 24.3047 25.4414 24.3047 27H18.1523C18.1523 25.957 17.8301 25.1484 17.1855 24.5742C16.5527 24 15.6914 23.7129 14.6016 23.7129C13.5 23.7129 12.627 23.959 11.9824 24.4512C11.3496 24.9316 11.0332 25.5469 11.0332 26.2969C11.0332 26.9531 11.3848 27.5508 12.0879 28.0898C12.791 28.6172 14.0273 29.168 15.7969 29.7422C17.5664 30.3047 19.0195 30.9141 20.1562 31.5703C22.9219 33.1641 24.3047 35.3613 24.3047 38.1621C24.3047 40.4004 23.4609 42.1582 21.7734 43.4355C20.0859 44.7129 17.7715 45.3516 14.8301 45.3516C12.7559 45.3516 10.875 44.9824 9.1875 44.2441C7.51172 43.4941 6.24609 42.4746 5.39062 41.1855C4.54688 39.8848 4.125 38.3906 4.125 36.7031H10.3125C10.3125 38.0742 10.6641 39.0879 11.3672 39.7441C12.082 40.3887 13.2363 40.7109 14.8301 40.7109C15.8496 40.7109 16.6523 40.4941 17.2383 40.0605C17.8359 39.6152 18.1348 38.9941 18.1348 38.1973Z" fill="#DADCD9" fill-opacity="0.05"/>
<path d="M47.0078 19.4062V36.1582C47.0078 38.0566 46.6035 39.7031 45.7949 41.0977C44.9863 42.4805 43.8262 43.5352 42.3145 44.2617C40.8027 44.9883 39.0156 45.3516 36.9531 45.3516C33.8359 45.3516 31.3809 44.543 29.5879 42.9258C27.7949 41.3086 26.8809 39.0938 26.8457 36.2812V19.4062H33.0508V36.4043C33.1211 39.2051 34.4219 40.6055 36.9531 40.6055C38.2305 40.6055 39.1973 40.2539 39.8535 39.5508C40.5098 38.8477 40.8379 37.7051 40.8379 36.123V19.4062H47.0078Z" fill="#DADCD9" fill-opacity="0.05"/>
<path d="M61.4434 35.9648H58.1035V45H51.9336V19.4062H62.0059C65.041 19.4062 67.4141 20.0801 69.125 21.4277C70.8359 22.7754 71.6914 24.6797 71.6914 27.1406C71.6914 28.9219 71.3281 30.3984 70.6016 31.5703C69.8867 32.7422 68.7617 33.6914 67.2266 34.418L72.5703 44.7363V45H65.9609L61.4434 35.9648ZM58.1035 31.2012H62.0059C63.1777 31.2012 64.0566 30.8965 64.6426 30.2871C65.2402 29.666 65.5391 28.8047 65.5391 27.7031C65.5391 26.6016 65.2402 25.7402 64.6426 25.1191C64.0449 24.4863 63.166 24.1699 62.0059 24.1699H58.1035V31.2012Z" fill="#DADCD9" fill-opacity="0.05"/>
<path d="M96.0078 19.4062V36.1582C96.0078 38.0566 95.6035 39.7031 94.7949 41.0977C93.9863 42.4805 92.8262 43.5352 91.3145 44.2617C89.8027 44.9883 88.0156 45.3516 85.9531 45.3516C82.8359 45.3516 80.3809 44.543 78.5879 42.9258C76.7949 41.3086 75.8809 39.0938 75.8457 36.2812V19.4062H82.0508V36.4043C82.1211 39.2051 83.4219 40.6055 85.9531 40.6055C87.2305 40.6055 88.1973 40.2539 88.8535 39.5508C89.5098 38.8477 89.8379 37.7051 89.8379 36.123V19.4062H96.0078Z" fill="#DADCD9" fill-opacity="0.05"/>
<path d="M13.1035 75.2539H23.8438V80H6.93359V54.4062H13.1035V75.2539Z" fill="#DADCD9" fill-opacity="0.05"/>
<path d="M44.8066 69.1543H35.1035V75.2539H46.5645V80H28.9336V54.4062H46.5996V59.1699H35.1035V64.5664H44.8066V69.1543Z" fill="#DADCD9" fill-opacity="0.05"/>
<path d="M62.4434 70.9648H59.1035V80H52.9336V54.4062H63.0059C66.041 54.4062 68.4141 55.0801 70.125 56.4277C71.8359 57.7754 72.6914 59.6797 72.6914 62.1406C72.6914 63.9219 72.3281 65.3984 71.6016 66.5703C70.8867 67.7422 69.7617 68.6914 68.2266 69.418L73.5703 79.7363V80H66.9609L62.4434 70.9648ZM59.1035 66.2012H63.0059C64.1777 66.2012 65.0566 65.8965 65.6426 65.2871C66.2402 64.666 66.5391 63.8047 66.5391 62.7031C66.5391 61.6016 66.2402 60.7402 65.6426 60.1191C65.0449 59.4863 64.166 59.1699 63.0059 59.1699H59.1035V66.2012Z" fill="#DADCD9" fill-opacity="0.05"/>
<path d="M93.8066 69.1543H84.1035V75.2539H95.5645V80H77.9336V54.4062H95.5996V59.1699H84.1035V64.5664H93.8066V69.1543Z" fill="#DADCD9" fill-opacity="0.05"/>
<rect x="33" y="15.1213" width="3" height="5" transform="rotate(-45 33 15.1213)" fill="#DADCD9" fill-opacity="0.05"/>
<rect x="37.5355" y="48" width="3" height="5" transform="rotate(45 37.5355 48)" fill="#DADCD9" fill-opacity="0.05"/>
<rect x="85" y="50.1213" width="3" height="5" transform="rotate(-45 85 50.1213)" fill="#DADCD9" fill-opacity="0.05"/>
<rect x="82" y="15.1213" width="3" height="5" transform="rotate(-45 82 15.1213)" fill="#DADCD9" fill-opacity="0.05"/>
</svg>
