<svg width="100" height="100" viewBox="0 0 100 100" fill="none" xmlns="http://www.w3.org/2000/svg">
<rect width="100" height="100" fill="#E5E5E5"/>
<rect width="100" height="100" fill="#EEEEEE" fill-opacity="0.05"/>
<path d="M18.1348 38.1973C18.1348 37.2949 17.8125 36.5918 17.168 36.0879C16.5352 35.584 15.416 35.0625 13.8105 34.5234C12.2051 33.9844 10.8926 33.4629 9.87305 32.959C6.55664 31.3301 4.89844 29.0918 4.89844 26.2441C4.89844 24.8262 5.30859 23.5781 6.12891 22.5C6.96094 21.4102 8.13281 20.5664 9.64453 19.9688C11.1562 19.3594 12.8555 19.0547 14.7422 19.0547C16.582 19.0547 18.2285 19.3828 19.6816 20.0391C21.1465 20.6953 22.2832 21.6328 23.0918 22.8516C23.9004 24.0586 24.3047 25.4414 24.3047 27H18.1523C18.1523 25.957 17.8301 25.1484 17.1855 24.5742C16.5527 24 15.6914 23.7129 14.6016 23.7129C13.5 23.7129 12.627 23.959 11.9824 24.4512C11.3496 24.9316 11.0332 25.5469 11.0332 26.2969C11.0332 26.9531 11.3848 27.5508 12.0879 28.0898C12.791 28.6172 14.0273 29.168 15.7969 29.7422C17.5664 30.3047 19.0195 30.9141 20.1562 31.5703C22.9219 33.1641 24.3047 35.3613 24.3047 38.1621C24.3047 40.4004 23.4609 42.1582 21.7734 43.4355C20.0859 44.7129 17.7715 45.3516 14.8301 45.3516C12.7559 45.3516 10.875 44.9824 9.1875 44.2441C7.51172 43.4941 6.24609 42.4746 5.39062 41.1855C4.54688 39.8848 4.125 38.3906 4.125 36.7031H10.3125C10.3125 38.0742 10.6641 39.0879 11.3672 39.7441C12.082 40.3887 13.2363 40.7109 14.8301 40.7109C15.8496 40.7109 16.6523 40.4941 17.2383 40.0605C17.8359 39.6152 18.1348 38.9941 18.1348 38.1973Z" fill="#0A3D02"/>
<path d="M17.168 36.0879L17.0434 36.2444L17.0448 36.2455L17.168 36.0879ZM9.87305 32.959L9.96166 32.7797L9.96122 32.7795L9.87305 32.959ZM6.12891 22.5L5.96994 22.3786L5.96974 22.3789L6.12891 22.5ZM9.64453 19.9688L9.71806 20.1547L9.7193 20.1542L9.64453 19.9688ZM19.6816 20.0391L19.5993 20.2213L19.5999 20.2216L19.6816 20.0391ZM23.0918 22.8516L22.9251 22.9621L22.9256 22.9629L23.0918 22.8516ZM24.3047 27V27.2H24.5047V27H24.3047ZM18.1523 27H17.9523V27.2H18.1523V27ZM17.1855 24.5742L17.0511 24.7223L17.0525 24.7236L17.1855 24.5742ZM11.9824 24.4512L12.1034 24.6105L12.1038 24.6101L11.9824 24.4512ZM12.0879 28.0898L11.9662 28.2486L11.9679 28.2498L12.0879 28.0898ZM15.7969 29.7422L15.7351 29.9324L15.7363 29.9328L15.7969 29.7422ZM20.1562 31.5703L20.0563 31.7435L20.0564 31.7436L20.1562 31.5703ZM9.1875 44.2441L9.1058 44.4267L9.10734 44.4274L9.1875 44.2441ZM5.39062 41.1855L5.22282 41.2944L5.22398 41.2961L5.39062 41.1855ZM4.125 36.7031V36.5031H3.925V36.7031H4.125ZM10.3125 36.7031H10.5125V36.5031H10.3125V36.7031ZM11.3672 39.7441L11.2307 39.8904L11.2333 39.8927L11.3672 39.7441ZM17.2383 40.0605L17.3573 40.2213L17.3578 40.2209L17.2383 40.0605ZM18.3348 38.1973C18.3348 37.2406 17.9896 36.4764 17.2912 35.9303L17.0448 36.2455C17.6354 36.7072 17.9348 37.3492 17.9348 38.1973H18.3348ZM17.2926 35.9314C16.6307 35.4044 15.483 34.874 13.8742 34.3338L13.7469 34.713C15.349 35.251 16.4396 35.7636 17.0434 36.2443L17.2926 35.9314ZM13.8742 34.3338C12.2736 33.7964 10.9702 33.2782 9.96166 32.7797L9.78443 33.1383C10.8149 33.6476 12.1366 34.1723 13.7469 34.713L13.8742 34.3338ZM9.96122 32.7795C6.68913 31.1723 5.09844 28.9919 5.09844 26.2441H4.69844C4.69844 29.1917 6.42415 31.4878 9.78488 33.1385L9.96122 32.7795ZM5.09844 26.2441C5.09844 24.8677 5.49555 23.6627 6.28807 22.6211L5.96974 22.3789C5.12164 23.4935 4.69844 24.7846 4.69844 26.2441H5.09844ZM6.28787 22.6214C7.09404 21.5654 8.23384 20.7415 9.71806 20.1547L9.571 19.7828C8.03179 20.3913 6.82784 21.2549 5.96994 22.3786L6.28787 22.6214ZM9.7193 20.1542C11.2038 19.5558 12.8771 19.2547 14.7422 19.2547V18.8547C12.8338 18.8547 11.1087 19.1629 9.56976 19.7833L9.7193 20.1542ZM14.7422 19.2547C16.558 19.2547 18.1758 19.5784 19.5993 20.2213L19.764 19.8568C18.2813 19.1872 16.6061 18.8547 14.7422 18.8547V19.2547ZM19.5999 20.2216C21.0337 20.8639 22.1395 21.778 22.9251 22.9621L23.2585 22.741C22.4269 21.4877 21.2593 20.5267 19.7634 19.8565L19.5999 20.2216ZM22.9256 22.9629C23.7105 24.1345 24.1047 25.478 24.1047 27H24.5047C24.5047 25.4048 24.0902 23.9826 23.258 22.7403L22.9256 22.9629ZM24.3047 26.8H18.1523V27.2H24.3047V26.8ZM18.3523 27C18.3523 25.9129 18.0145 25.0449 17.3186 24.4249L17.0525 24.7236C17.6457 25.252 17.9523 26.0012 17.9523 27H18.3523ZM17.3199 24.4261C16.6411 23.8101 15.7269 23.5129 14.6016 23.5129V23.9129C15.6559 23.9129 16.4644 24.1899 17.0511 24.7223L17.3199 24.4261ZM14.6016 23.5129C13.4717 23.5129 12.551 23.7653 11.861 24.2922L12.1038 24.6101C12.7029 24.1527 13.5283 23.9129 14.6016 23.9129V23.5129ZM11.8615 24.2919C11.1823 24.8076 10.8332 25.4801 10.8332 26.2969H11.2332C11.2332 25.6136 11.5169 25.0557 12.1034 24.6105L11.8615 24.2919ZM10.8332 26.2969C10.8332 27.0355 11.2323 27.6859 11.9662 28.2486L12.2096 27.9311C11.5372 27.4157 11.2332 26.8707 11.2332 26.2969H10.8332ZM11.9679 28.2498C12.6992 28.7983 13.9627 29.3573 15.7351 29.9324L15.8586 29.552C14.092 28.9787 12.8828 28.436 12.2079 27.9298L11.9679 28.2498ZM15.7363 29.9328C17.4973 30.4926 18.936 31.0967 20.0563 31.7435L20.2562 31.3971C19.1031 30.7314 17.6356 30.1168 15.8575 29.5516L15.7363 29.9328ZM20.0564 31.7436C22.7704 33.3076 24.1047 35.4441 24.1047 38.1621H24.5047C24.5047 35.2786 23.0733 33.0205 20.2561 31.397L20.0564 31.7436ZM24.1047 38.1621C24.1047 40.342 23.287 42.039 21.6527 43.2761L21.8941 43.595C23.6348 42.2774 24.5047 40.4588 24.5047 38.1621H24.1047ZM21.6527 43.2761C20.0112 44.5186 17.7445 45.1516 14.8301 45.1516V45.5516C17.7984 45.5516 20.1606 44.9072 21.8941 43.595L21.6527 43.2761ZM14.8301 45.1516C12.78 45.1516 10.9269 44.7868 9.26766 44.0609L9.10734 44.4274C10.8231 45.178 12.7317 45.5516 14.8301 45.5516V45.1516ZM9.2692 44.0616C7.62144 43.3241 6.38817 42.327 5.55727 41.075L5.22398 41.2961C6.10402 42.6222 7.402 43.6642 9.1058 44.4267L9.2692 44.0616ZM5.55842 41.0767C4.73754 39.8112 4.325 38.3556 4.325 36.7031H3.925C3.925 38.4257 4.35621 39.9583 5.22283 41.2944L5.55842 41.0767ZM4.125 36.9031H10.3125V36.5031H4.125V36.9031ZM10.1125 36.7031C10.1125 38.1056 10.4723 39.1825 11.2307 39.8904L11.5037 39.5979C10.8558 38.9933 10.5125 38.0428 10.5125 36.7031H10.1125ZM11.2333 39.8927C12.0024 40.5862 13.2172 40.9109 14.8301 40.9109V40.5109C13.2555 40.5109 12.1616 40.1912 11.5011 39.5956L11.2333 39.8927ZM14.8301 40.9109C15.8758 40.9109 16.7256 40.6888 17.3572 40.2213L17.1193 39.8998C16.5791 40.2995 15.8234 40.5109 14.8301 40.5109V40.9109ZM17.3578 40.2209C18.01 39.7349 18.3348 39.0522 18.3348 38.1973H17.9348C17.9348 38.9361 17.6618 39.4955 17.1188 39.9002L17.3578 40.2209Z" fill="#0A3D02"/>
<path d="M47.0078 19.4062V36.1582C47.0078 38.0566 46.6035 39.7031 45.7949 41.0977C44.9863 42.4805 43.8262 43.5352 42.3145 44.2617C40.8027 44.9883 39.0156 45.3516 36.9531 45.3516C33.8359 45.3516 31.3809 44.543 29.5879 42.9258C27.7949 41.3086 26.8809 39.0938 26.8457 36.2812V19.4062H33.0508V36.4043C33.1211 39.2051 34.4219 40.6055 36.9531 40.6055C38.2305 40.6055 39.1973 40.2539 39.8535 39.5508C40.5098 38.8477 40.8379 37.7051 40.8379 36.123V19.4062H47.0078Z" fill="#0A3D02"/>
<path d="M47.0078 19.4062H47.2078V19.2062H47.0078V19.4062ZM45.7949 41.0977L45.9676 41.1986L45.9679 41.198L45.7949 41.0977ZM26.8457 36.2812H26.6457L26.6457 36.2837L26.8457 36.2812ZM26.8457 19.4062V19.2062H26.6457V19.4062H26.8457ZM33.0508 19.4062H33.2508V19.2062H33.0508V19.4062ZM33.0508 36.4043H32.8507L32.8508 36.4093L33.0508 36.4043ZM40.8379 19.4062V19.2062H40.6379V19.4062H40.8379ZM46.8078 19.4062V36.1582H47.2078V19.4062H46.8078ZM46.8078 36.1582C46.8078 38.0277 46.4099 39.6383 45.6219 40.9973L45.9679 41.198C46.7971 39.7679 47.2078 38.0856 47.2078 36.1582H46.8078ZM45.6223 40.9967C44.8348 42.3434 43.7054 43.3713 42.2278 44.0815L42.4011 44.442C43.947 43.699 45.1379 42.6175 45.9676 41.1986L45.6223 40.9967ZM42.2278 44.0815C40.7486 44.7924 38.9924 45.1516 36.9531 45.1516V45.5516C39.0389 45.5516 40.8569 45.1842 42.4011 44.442L42.2278 44.0815ZM36.9531 45.1516C33.8706 45.1516 31.4684 44.3526 29.7218 42.7773L29.4539 43.0743C31.2933 44.7334 33.8013 45.5516 36.9531 45.5516V45.1516ZM29.7218 42.7773C27.9772 41.2037 27.0803 39.0456 27.0457 36.2788L26.6457 36.2837C26.6814 39.1419 27.6126 41.4135 29.4539 43.0743L29.7218 42.7773ZM27.0457 36.2812V19.4062H26.6457V36.2812H27.0457ZM26.8457 19.6063H33.0508V19.2062H26.8457V19.6063ZM32.8508 19.4062V36.4043H33.2508V19.4062H32.8508ZM32.8508 36.4093C32.8867 37.8362 33.2365 38.9419 33.9326 39.6913C34.632 40.4443 35.6508 40.8055 36.9531 40.8055V40.4055C35.7242 40.4055 34.827 40.0665 34.2256 39.4191C33.621 38.7681 33.2852 37.7732 33.2507 36.3993L32.8508 36.4093ZM36.9531 40.8055C38.2669 40.8055 39.2944 40.443 39.9997 39.6872L39.7073 39.4143C39.1002 40.0648 38.1941 40.4055 36.9531 40.4055V40.8055ZM39.9997 39.6872C40.707 38.9295 41.0379 37.725 41.0379 36.123H40.6379C40.6379 37.6852 40.3126 38.7658 39.7073 39.4143L39.9997 39.6872ZM41.0379 36.123V19.4062H40.6379V36.123H41.0379ZM40.8379 19.6063H47.0078V19.2062H40.8379V19.6063Z" fill="#0A3D02"/>
<path d="M61.4434 35.9648H58.1035V45H51.9336V19.4062H62.0059C65.041 19.4062 67.4141 20.0801 69.125 21.4277C70.8359 22.7754 71.6914 24.6797 71.6914 27.1406C71.6914 28.9219 71.3281 30.3984 70.6016 31.5703C69.8867 32.7422 68.7617 33.6914 67.2266 34.418L72.5703 44.7363V45H65.9609L61.4434 35.9648ZM58.1035 31.2012H62.0059C63.1777 31.2012 64.0566 30.8965 64.6426 30.2871C65.2402 29.666 65.5391 28.8047 65.5391 27.7031C65.5391 26.6016 65.2402 25.7402 64.6426 25.1191C64.0449 24.4863 63.166 24.1699 62.0059 24.1699H58.1035V31.2012Z" fill="#0A3D02"/>
<path d="M61.4434 35.9648L61.6222 35.8754L61.567 35.7648H61.4434V35.9648ZM58.1035 35.9648V35.7648H57.9035V35.9648H58.1035ZM58.1035 45V45.2H58.3035V45H58.1035ZM51.9336 45H51.7336V45.2H51.9336V45ZM51.9336 19.4062V19.2062H51.7336V19.4062H51.9336ZM70.6016 31.5703L70.4316 31.4649L70.4308 31.4662L70.6016 31.5703ZM67.2266 34.418L67.141 34.2372L66.9536 34.3259L67.049 34.5099L67.2266 34.418ZM72.5703 44.7363H72.7703V44.6876L72.7479 44.6444L72.5703 44.7363ZM72.5703 45V45.2H72.7703V45H72.5703ZM65.9609 45L65.7821 45.0894L65.8373 45.2H65.9609V45ZM58.1035 31.2012H57.9035V31.4012H58.1035V31.2012ZM64.6426 30.2871L64.4985 30.1484L64.4984 30.1485L64.6426 30.2871ZM64.6426 25.1191L64.4972 25.2565L64.4985 25.2578L64.6426 25.1191ZM58.1035 24.1699V23.9699H57.9035V24.1699H58.1035ZM61.4434 35.7648H58.1035V36.1648H61.4434V35.7648ZM57.9035 35.9648V45H58.3035V35.9648H57.9035ZM58.1035 44.8H51.9336V45.2H58.1035V44.8ZM52.1336 45V19.4062H51.7336V45H52.1336ZM51.9336 19.6063H62.0059V19.2062H51.9336V19.6063ZM62.0059 19.6063C65.0135 19.6063 67.3372 20.2741 69.0012 21.5848L69.2488 21.2706C67.491 19.8861 65.0685 19.2062 62.0059 19.2062V19.6063ZM69.0012 21.5848C70.6574 22.8893 71.4914 24.7319 71.4914 27.1406H71.8914C71.8914 24.6274 71.0145 22.6615 69.2488 21.2706L69.0012 21.5848ZM71.4914 27.1406C71.4914 28.8953 71.1336 30.3327 70.4316 31.4649L70.7715 31.6757C71.5227 30.4642 71.8914 28.9484 71.8914 27.1406H71.4914ZM70.4308 31.4662C69.7406 32.5976 68.6493 33.5233 67.141 34.2372L67.3121 34.5987C68.8741 33.8595 70.0328 32.8868 70.7723 31.6745L70.4308 31.4662ZM67.049 34.5099L72.3927 44.8283L72.7479 44.6444L67.4042 34.326L67.049 34.5099ZM72.3703 44.7363V45H72.7703V44.7363H72.3703ZM72.5703 44.8H65.9609V45.2H72.5703V44.8ZM66.1398 44.9106L61.6222 35.8754L61.2645 36.0543L65.7821 45.0894L66.1398 44.9106ZM58.1035 31.4012H62.0059V31.0012H58.1035V31.4012ZM62.0059 31.4012C63.2106 31.4012 64.1504 31.0875 64.7867 30.4257L64.4984 30.1485C63.9629 30.7054 63.1449 31.0012 62.0059 31.0012V31.4012ZM64.7867 30.4258C65.4294 29.7579 65.7391 28.8414 65.7391 27.7031H65.3391C65.3391 28.768 65.0511 29.5742 64.4985 30.1484L64.7867 30.4258ZM65.7391 27.7031C65.7391 26.5648 65.4294 25.6484 64.7867 24.9805L64.4985 25.2578C65.0511 25.8321 65.3391 26.6383 65.3391 27.7031H65.7391ZM64.788 24.9818C64.1412 24.297 63.2019 23.9699 62.0059 23.9699V24.3699C63.1301 24.3699 63.9487 24.6757 64.4972 25.2565L64.788 24.9818ZM62.0059 23.9699H58.1035V24.3699H62.0059V23.9699ZM57.9035 24.1699V31.2012H58.3035V24.1699H57.9035Z" fill="#0A3D02"/>
<path d="M96.0078 19.4062V36.1582C96.0078 38.0566 95.6035 39.7031 94.7949 41.0977C93.9863 42.4805 92.8262 43.5352 91.3145 44.2617C89.8027 44.9883 88.0156 45.3516 85.9531 45.3516C82.8359 45.3516 80.3809 44.543 78.5879 42.9258C76.7949 41.3086 75.8809 39.0938 75.8457 36.2812V19.4062H82.0508V36.4043C82.1211 39.2051 83.4219 40.6055 85.9531 40.6055C87.2305 40.6055 88.1973 40.2539 88.8535 39.5508C89.5098 38.8477 89.8379 37.7051 89.8379 36.123V19.4062H96.0078Z" fill="#0A3D02"/>
<path d="M96.0078 19.4062H96.2078V19.2062H96.0078V19.4062ZM94.7949 41.0977L94.9676 41.1986L94.9679 41.198L94.7949 41.0977ZM75.8457 36.2812H75.6457L75.6457 36.2837L75.8457 36.2812ZM75.8457 19.4062V19.2062H75.6457V19.4062H75.8457ZM82.0508 19.4062H82.2508V19.2062H82.0508V19.4062ZM82.0508 36.4043H81.8507L81.8508 36.4093L82.0508 36.4043ZM89.8379 19.4062V19.2062H89.6379V19.4062H89.8379ZM95.8078 19.4062V36.1582H96.2078V19.4062H95.8078ZM95.8078 36.1582C95.8078 38.0277 95.4099 39.6383 94.6219 40.9973L94.9679 41.198C95.7971 39.7679 96.2078 38.0856 96.2078 36.1582H95.8078ZM94.6223 40.9967C93.8348 42.3434 92.7054 43.3713 91.2278 44.0815L91.4011 44.442C92.947 43.699 94.1379 42.6175 94.9676 41.1986L94.6223 40.9967ZM91.2278 44.0815C89.7486 44.7924 87.9924 45.1516 85.9531 45.1516V45.5516C88.0389 45.5516 89.8569 45.1842 91.4011 44.442L91.2278 44.0815ZM85.9531 45.1516C82.8706 45.1516 80.4684 44.3526 78.7218 42.7773L78.4539 43.0743C80.2933 44.7334 82.8013 45.5516 85.9531 45.5516V45.1516ZM78.7218 42.7773C76.9772 41.2037 76.0803 39.0456 76.0457 36.2788L75.6457 36.2837C75.6814 39.1419 76.6126 41.4135 78.4539 43.0743L78.7218 42.7773ZM76.0457 36.2812V19.4062H75.6457V36.2812H76.0457ZM75.8457 19.6063H82.0508V19.2062H75.8457V19.6063ZM81.8508 19.4062V36.4043H82.2508V19.4062H81.8508ZM81.8508 36.4093C81.8867 37.8362 82.2365 38.9419 82.9326 39.6913C83.632 40.4443 84.6508 40.8055 85.9531 40.8055V40.4055C84.7242 40.4055 83.827 40.0665 83.2256 39.4191C82.621 38.7681 82.2852 37.7732 82.2507 36.3993L81.8508 36.4093ZM85.9531 40.8055C87.2669 40.8055 88.2944 40.443 88.9997 39.6872L88.7073 39.4143C88.1002 40.0648 87.1941 40.4055 85.9531 40.4055V40.8055ZM88.9997 39.6872C89.707 38.9295 90.0379 37.725 90.0379 36.123H89.6379C89.6379 37.6852 89.3126 38.7658 88.7073 39.4143L88.9997 39.6872ZM90.0379 36.123V19.4062H89.6379V36.123H90.0379ZM89.8379 19.6063H96.0078V19.2062H89.8379V19.6063Z" fill="#0A3D02"/>
<path d="M13.1035 75.2539H23.8438V80H6.93359V54.4062H13.1035V75.2539Z" fill="#0A3D02"/>
<path d="M13.1035 75.2539H12.9035V75.4539H13.1035V75.2539ZM23.8438 75.2539H24.0438V75.0539H23.8438V75.2539ZM23.8438 80V80.2H24.0438V80H23.8438ZM6.93359 80H6.73359V80.2H6.93359V80ZM6.93359 54.4062V54.2062H6.73359V54.4062H6.93359ZM13.1035 54.4062H13.3035V54.2062H13.1035V54.4062ZM13.1035 75.4539H23.8438V75.0539H13.1035V75.4539ZM23.6437 75.2539V80H24.0438V75.2539H23.6437ZM23.8438 79.8H6.93359V80.2H23.8438V79.8ZM7.13359 80V54.4062H6.73359V80H7.13359ZM6.93359 54.6063H13.1035V54.2062H6.93359V54.6063ZM12.9035 54.4062V75.2539H13.3035V54.4062H12.9035Z" fill="#0A3D02"/>
<path d="M44.8066 69.1543H35.1035V75.2539H46.5645V80H28.9336V54.4062H46.5996V59.1699H35.1035V64.5664H44.8066V69.1543Z" fill="#0A3D02"/>
<path d="M44.8066 69.1543V69.3543H45.0066V69.1543H44.8066ZM35.1035 69.1543V68.9543H34.9035V69.1543H35.1035ZM35.1035 75.2539H34.9035V75.4539H35.1035V75.2539ZM46.5645 75.2539H46.7645V75.0539H46.5645V75.2539ZM46.5645 80V80.2H46.7645V80H46.5645ZM28.9336 80H28.7336V80.2H28.9336V80ZM28.9336 54.4062V54.2062H28.7336V54.4062H28.9336ZM46.5996 54.4062H46.7996V54.2062H46.5996V54.4062ZM46.5996 59.1699V59.3699H46.7996V59.1699H46.5996ZM35.1035 59.1699V58.9699H34.9035V59.1699H35.1035ZM35.1035 64.5664H34.9035V64.7664H35.1035V64.5664ZM44.8066 64.5664H45.0066V64.3664H44.8066V64.5664ZM44.8066 68.9543H35.1035V69.3543H44.8066V68.9543ZM34.9035 69.1543V75.2539H35.3035V69.1543H34.9035ZM35.1035 75.4539H46.5645V75.0539H35.1035V75.4539ZM46.3645 75.2539V80H46.7645V75.2539H46.3645ZM46.5645 79.8H28.9336V80.2H46.5645V79.8ZM29.1336 80V54.4062H28.7336V80H29.1336ZM28.9336 54.6063H46.5996V54.2062H28.9336V54.6063ZM46.3996 54.4062V59.1699H46.7996V54.4062H46.3996ZM46.5996 58.9699H35.1035V59.3699H46.5996V58.9699ZM34.9035 59.1699V64.5664H35.3035V59.1699H34.9035ZM35.1035 64.7664H44.8066V64.3664H35.1035V64.7664ZM44.6066 64.5664V69.1543H45.0066V64.5664H44.6066Z" fill="#0A3D02"/>
<path d="M62.4434 70.9648H59.1035V80H52.9336V54.4062H63.0059C66.041 54.4062 68.4141 55.0801 70.125 56.4277C71.8359 57.7754 72.6914 59.6797 72.6914 62.1406C72.6914 63.9219 72.3281 65.3984 71.6016 66.5703C70.8867 67.7422 69.7617 68.6914 68.2266 69.418L73.5703 79.7363V80H66.9609L62.4434 70.9648ZM59.1035 66.2012H63.0059C64.1777 66.2012 65.0566 65.8965 65.6426 65.2871C66.2402 64.666 66.5391 63.8047 66.5391 62.7031C66.5391 61.6016 66.2402 60.7402 65.6426 60.1191C65.0449 59.4863 64.166 59.1699 63.0059 59.1699H59.1035V66.2012Z" fill="#0A3D02"/>
<path d="M62.4434 70.9648L62.6222 70.8754L62.567 70.7648H62.4434V70.9648ZM59.1035 70.9648V70.7648H58.9035V70.9648H59.1035ZM59.1035 80V80.2H59.3035V80H59.1035ZM52.9336 80H52.7336V80.2H52.9336V80ZM52.9336 54.4062V54.2062H52.7336V54.4062H52.9336ZM71.6016 66.5703L71.4316 66.4649L71.4308 66.4662L71.6016 66.5703ZM68.2266 69.418L68.141 69.2372L67.9536 69.3259L68.049 69.5099L68.2266 69.418ZM73.5703 79.7363H73.7703V79.6876L73.7479 79.6444L73.5703 79.7363ZM73.5703 80V80.2H73.7703V80H73.5703ZM66.9609 80L66.7821 80.0894L66.8373 80.2H66.9609V80ZM59.1035 66.2012H58.9035V66.4012H59.1035V66.2012ZM65.6426 65.2871L65.4985 65.1484L65.4984 65.1485L65.6426 65.2871ZM65.6426 60.1191L65.4972 60.2565L65.4985 60.2578L65.6426 60.1191ZM59.1035 59.1699V58.9699H58.9035V59.1699H59.1035ZM62.4434 70.7648H59.1035V71.1648H62.4434V70.7648ZM58.9035 70.9648V80H59.3035V70.9648H58.9035ZM59.1035 79.8H52.9336V80.2H59.1035V79.8ZM53.1336 80V54.4062H52.7336V80H53.1336ZM52.9336 54.6063H63.0059V54.2062H52.9336V54.6063ZM63.0059 54.6063C66.0135 54.6063 68.3372 55.2741 70.0012 56.5848L70.2488 56.2706C68.491 54.8861 66.0685 54.2062 63.0059 54.2062V54.6063ZM70.0012 56.5848C71.6574 57.8893 72.4914 59.7319 72.4914 62.1406H72.8914C72.8914 59.6274 72.0145 57.6615 70.2488 56.2706L70.0012 56.5848ZM72.4914 62.1406C72.4914 63.8953 72.1336 65.3327 71.4316 66.4649L71.7715 66.6757C72.5227 65.4642 72.8914 63.9484 72.8914 62.1406H72.4914ZM71.4308 66.4662C70.7406 67.5976 69.6493 68.5233 68.141 69.2372L68.3121 69.5987C69.8741 68.8595 71.0328 67.8868 71.7723 66.6745L71.4308 66.4662ZM68.049 69.5099L73.3927 79.8283L73.7479 79.6444L68.4042 69.326L68.049 69.5099ZM73.3703 79.7363V80H73.7703V79.7363H73.3703ZM73.5703 79.8H66.9609V80.2H73.5703V79.8ZM67.1398 79.9106L62.6222 70.8754L62.2645 71.0543L66.7821 80.0894L67.1398 79.9106ZM59.1035 66.4012H63.0059V66.0012H59.1035V66.4012ZM63.0059 66.4012C64.2106 66.4012 65.1504 66.0875 65.7867 65.4257L65.4984 65.1485C64.9629 65.7054 64.1449 66.0012 63.0059 66.0012V66.4012ZM65.7867 65.4258C66.4294 64.7579 66.7391 63.8414 66.7391 62.7031H66.3391C66.3391 63.768 66.0511 64.5742 65.4985 65.1484L65.7867 65.4258ZM66.7391 62.7031C66.7391 61.5648 66.4294 60.6484 65.7867 59.9805L65.4985 60.2578C66.0511 60.8321 66.3391 61.6383 66.3391 62.7031H66.7391ZM65.788 59.9818C65.1412 59.297 64.2019 58.9699 63.0059 58.9699V59.3699C64.1301 59.3699 64.9487 59.6757 65.4972 60.2565L65.788 59.9818ZM63.0059 58.9699H59.1035V59.3699H63.0059V58.9699ZM58.9035 59.1699V66.2012H59.3035V59.1699H58.9035Z" fill="#0A3D02"/>
<path d="M93.8066 69.1543H84.1035V75.2539H95.5645V80H77.9336V54.4062H95.5996V59.1699H84.1035V64.5664H93.8066V69.1543Z" fill="#0A3D02"/>
<path d="M93.8066 69.1543V69.3543H94.0066V69.1543H93.8066ZM84.1035 69.1543V68.9543H83.9035V69.1543H84.1035ZM84.1035 75.2539H83.9035V75.4539H84.1035V75.2539ZM95.5645 75.2539H95.7645V75.0539H95.5645V75.2539ZM95.5645 80V80.2H95.7645V80H95.5645ZM77.9336 80H77.7336V80.2H77.9336V80ZM77.9336 54.4062V54.2062H77.7336V54.4062H77.9336ZM95.5996 54.4062H95.7996V54.2062H95.5996V54.4062ZM95.5996 59.1699V59.3699H95.7996V59.1699H95.5996ZM84.1035 59.1699V58.9699H83.9035V59.1699H84.1035ZM84.1035 64.5664H83.9035V64.7664H84.1035V64.5664ZM93.8066 64.5664H94.0066V64.3664H93.8066V64.5664ZM93.8066 68.9543H84.1035V69.3543H93.8066V68.9543ZM83.9035 69.1543V75.2539H84.3035V69.1543H83.9035ZM84.1035 75.4539H95.5645V75.0539H84.1035V75.4539ZM95.3645 75.2539V80H95.7645V75.2539H95.3645ZM95.5645 79.8H77.9336V80.2H95.5645V79.8ZM78.1336 80V54.4062H77.7336V80H78.1336ZM77.9336 54.6063H95.5996V54.2062H77.9336V54.6063ZM95.3996 54.4062V59.1699H95.7996V54.4062H95.3996ZM95.5996 58.9699H84.1035V59.3699H95.5996V58.9699ZM83.9035 59.1699V64.5664H84.3035V59.1699H83.9035ZM84.1035 64.7664H93.8066V64.3664H84.1035V64.7664ZM93.6066 64.5664V69.1543H94.0066V64.5664H93.6066Z" fill="#0A3D02"/>
<rect x="33.1414" y="15.1213" width="2.8" height="4.8" transform="rotate(-45 33.1414 15.1213)" fill="#0A3D02" stroke="#0A3D02" stroke-width="0.2"/>
<rect x="37.5355" y="48.1414" width="2.8" height="4.8" transform="rotate(45 37.5355 48.1414)" fill="#0A3D02" stroke="#0A3D02" stroke-width="0.2"/>
<rect x="85.1414" y="50.1213" width="2.8" height="4.8" transform="rotate(-45 85.1414 50.1213)" fill="#0A3D02" stroke="#0A3D02" stroke-width="0.2"/>
<rect x="82.1414" y="15.1213" width="2.8" height="4.8" transform="rotate(-45 82.1414 15.1213)" fill="#0A3D02" stroke="#0A3D02" stroke-width="0.2"/>
</svg>
